<svg width="47" height="48" viewBox="0 0 47 48" fill="none" xmlns="http://www.w3.org/2000/svg">
<rect width="48" height="48" rx="7.5" fill="#E7F5FF"/>
<path d="M41.9536 23.739L41.1245 27.0248H35.3129C34.8676 27.0248 34.5452 26.6102 34.6526 26.1803L35.382 23.2937C35.4818 22.8868 35.382 22.4876 35.1593 22.1805H40.7483C41.5621 22.1805 42.1609 22.9482 41.9613 23.739H41.9536Z" fill="#126DC1"/>
<path d="M12.3658 18.173C12.3658 11.9085 17.4481 6.8262 23.7127 6.8262C29.3477 6.8262 34.0231 10.9335 34.906 16.3152" stroke="#126DC1" stroke-width="1.9275" stroke-miterlimit="10" stroke-linecap="round"/>
<path d="M37.7313 16.4687L35.2055 18.9945C35.0443 19.1557 34.7756 19.1557 34.6143 18.9945L32.0885 16.4687C31.8275 16.2077 32.0118 15.7547 32.3803 15.7547H37.4319C37.8004 15.7547 37.9923 16.2 37.7236 16.4687H37.7313Z" fill="#126DC1"/>
<path d="M33.5011 23.739L32.8332 26.3953C32.7411 26.7638 32.4033 27.0248 32.0194 27.0248H6.86903L6.0399 23.739C5.91706 23.263 6.08596 22.7947 6.42376 22.503C6.63872 22.3033 6.92277 22.1805 7.25289 22.1805H32.3035C33.1096 22.1805 33.7161 22.9482 33.5088 23.739H33.5011Z" fill="#126DC1"/>
<path d="M40.7021 28.6754L38.3913 37.8342C37.9 39.7996 36.1342 41.1738 34.1075 41.1738H29.2555C30.4071 40.575 31.2899 39.5079 31.6201 38.1797L33.8541 29.3049C33.9462 28.9364 34.284 28.6754 34.6679 28.6754H40.7021Z" fill="url(#paint0_linear_121_1094)"/>
<path d="M31.3822 28.6754C31.8274 28.6754 32.1499 29.09 32.0424 29.5199L29.9465 37.8342C29.4552 39.7996 27.6895 41.1738 25.6627 41.1738H13.8782C13.0107 41.1738 12.1893 40.9205 11.4907 40.4752C10.5694 39.884 9.87845 38.9551 9.59439 37.8342L7.28357 28.6754H31.3822Z" fill="url(#paint1_linear_121_1094)"/>
<defs>
<linearGradient id="paint0_linear_121_1094" x1="34.9827" y1="28.6754" x2="34.9827" y2="41.1738" gradientUnits="userSpaceOnUse">
<stop stop-color="#126DC1"/>
<stop offset="0.85" stop-color="#234A91"/>
</linearGradient>
<linearGradient id="paint1_linear_121_1094" x1="19.6745" y1="5.84351" x2="19.6745" y2="5.84351" gradientUnits="userSpaceOnUse">
<stop stop-color="#126DC1"/>
<stop offset="0.85" stop-color="#234A91"/>
</linearGradient>
</defs>
</svg>
