<svg width="48" height="48" viewBox="0 0 48 48" fill="none" xmlns="http://www.w3.org/2000/svg">
<rect width="48" height="48" rx="7.5" fill="#E7F5FF"/>
<path d="M41.9537 23.739L41.1246 27.0248H35.3129C34.8677 27.0248 34.5452 26.6102 34.6527 26.1803L35.382 23.2937C35.4818 22.8868 35.382 22.4876 35.1594 22.1805H40.7484C41.5621 22.1805 42.161 22.9482 41.9614 23.739H41.9537Z" fill="#126DC1"/>
<path d="M12.366 18.173C12.366 11.9085 17.4482 6.8262 23.7128 6.8262C29.3478 6.8262 34.0232 10.9335 34.9061 16.3152" stroke="#126DC1" stroke-width="1.9275" stroke-miterlimit="10" stroke-linecap="round"/>
<path d="M37.7312 16.4687L35.2055 18.9945C35.0442 19.1557 34.7755 19.1557 34.6143 18.9945L32.0885 16.4687C31.8275 16.2077 32.0118 15.7547 32.3803 15.7547H37.4318C37.8003 15.7547 37.9923 16.2 37.7236 16.4687H37.7312Z" fill="#126DC1"/>
<path d="M33.5012 23.739L32.8332 26.3953C32.7411 26.7638 32.4033 27.0248 32.0195 27.0248H6.86909L6.03996 23.739C5.91712 23.263 6.08602 22.7947 6.42382 22.503C6.63878 22.3033 6.92283 22.1805 7.25295 22.1805H32.3035C33.1096 22.1805 33.7161 22.9482 33.5088 23.739H33.5012Z" fill="#126DC1"/>
<path d="M40.7023 28.6754L38.3914 37.8342C37.9001 39.7996 36.1344 41.1738 34.1076 41.1738H29.2556C30.4072 40.575 31.2901 39.5079 31.6202 38.1797L33.8542 29.3049C33.9464 28.9364 34.2842 28.6754 34.668 28.6754H40.7023Z" fill="url(#paint0_linear_93_3393)"/>
<path d="M31.3823 28.6754C31.8276 28.6754 32.15 29.09 32.0425 29.5199L29.9467 37.8342C29.4553 39.7996 27.6896 41.1738 25.6628 41.1738H13.8784C13.0109 41.1738 12.1894 40.9205 11.4908 40.4752C10.5695 39.884 9.87857 38.9551 9.59452 37.8342L7.28369 28.6754H31.3823Z" fill="url(#paint1_linear_93_3393)"/>
<defs>
<linearGradient id="paint0_linear_93_3393" x1="34.9828" y1="28.6754" x2="34.9828" y2="41.1738" gradientUnits="userSpaceOnUse">
<stop stop-color="#126DC1"/>
<stop offset="0.85" stop-color="#234A91"/>
</linearGradient>
<linearGradient id="paint1_linear_93_3393" x1="19.6746" y1="5.84351" x2="19.6746" y2="5.84351" gradientUnits="userSpaceOnUse">
<stop stop-color="#126DC1"/>
<stop offset="0.85" stop-color="#234A91"/>
</linearGradient>
</defs>
</svg>
